<?xml version="1.0" encoding="UTF-8"?>
<svg version="1.1" xmlns="http://www.w3.org/2000/svg" width="1024" height="1024">
<path d="M0 0 C1.31967773 0.15275391 1.31967773 0.15275391 2.66601562 0.30859375 C16.02264844 1.91495939 29.13434875 4.53423078 42.26708984 7.42236328 C45.86714078 8.18328168 49.48660581 8.82769353 53.11254883 9.45288086 C54.04683716 9.72370483 54.04683716 9.72370483 55 10 C55.33 10.66 55.66 11.32 56 12 C57.93519812 12.53875168 57.93519812 12.53875168 60.29296875 12.859375 C89.86705775 18.28889054 120.19204761 35.82513709 145 52 C145.76119141 52.49628906 146.52238281 52.99257812 147.30664062 53.50390625 C177.24940383 73.21510642 205.00517391 97.77801953 226.73144531 126.33300781 C227.92553633 127.90214821 229.13039081 129.46308109 230.3359375 131.0234375 C253.57604333 161.43943566 270.13427674 195.48950369 281.9375 231.8125 C282.23245361 232.71379639 282.52740723 233.61509277 282.83129883 234.54370117 C284.10149552 238.56731262 285.13392904 242.36994243 285.56640625 246.57421875 C285.70949219 247.70472656 285.85257813 248.83523438 286 250 C286.66 250.33 287.32 250.66 288 251 C288.34814453 252.73681641 288.34814453 252.73681641 288.5078125 254.9765625 C288.87334589 259.02616165 289.53068501 262.90584943 290.3581543 266.88354492 C307.2609177 348.3633279 291.72908806 436.39088756 247.15234375 506.765625 C228.38890489 534.96186343 206.51079624 563.51902268 179.84765625 584.70703125 C177.38184399 586.6925344 174.99539837 588.74386356 172.6171875 590.83251953 C159.87450194 601.9383463 145.67183789 611.52042289 130.98730469 619.86962891 C129.59364483 620.66233715 128.20399195 621.46211205 126.81738281 622.26708984 C75.98165783 651.72601631 18.29977607 666.42852673 -40.375 666.0625 C-41.8046859 666.05746589 -43.23437355 666.05290643 -44.6640625 666.04882812 C-48.10941245 666.03799465 -51.55469427 666.02083984 -55 666 C-55.95470405 659.59586075 -56.13657211 653.37140247 -56.11352539 646.90234375 C-56.11367142 645.81852921 -56.11381744 644.73471466 -56.1139679 643.61805725 C-56.11327469 640.0578507 -56.10551008 636.49769734 -56.09765625 632.9375 C-56.09578997 630.46028675 -56.09436706 627.98307313 -56.09336853 625.50585938 C-56.08955992 619.00232922 -56.0797438 612.49882158 -56.06866455 605.99530029 C-56.05841479 599.35233829 -56.05386328 592.70937408 -56.04882812 586.06640625 C-56.03812001 573.04426126 -56.02125717 560.02213183 -56 547 C-52.08806434 547 -51.43592524 548.15702107 -48.5625 550.75 C-29.70652273 566.50057917 -4.08264237 579.35717704 21 578 C21 578.33 21 578.66 21 579 C49.89038176 582.83821948 80.39954511 573.42653478 103.53515625 556.1015625 C106.07075019 554.11854776 108.54263613 552.07900785 111 550 C111.81210937 549.32324219 112.62421875 548.64648438 113.4609375 547.94921875 C123.44006455 539.33946718 131.86510692 529.06309264 139 518 C139.70769531 516.90429688 140.41539062 515.80859375 141.14453125 514.6796875 C167.85713004 472.29294355 175.6109691 418.87743469 164.98046875 370.171875 C163.74774149 364.88687252 162.50591888 359.83724506 160 355 C159.57683111 353.5912571 159.18328784 352.17342715 158.8125 350.75 C153.29583188 332.05919907 142.74123709 312.46120759 128.70703125 298.76171875 C127 297 127 297 127 295 C126.43539063 294.76152344 125.87078125 294.52304687 125.2890625 294.27734375 C122.50987779 292.72650177 120.63536528 290.80492587 118.375 288.5625 C96.75957008 268.62089509 65.62418648 258.00236892 36.359375 259.15625 C18.86532642 260.20296504 2.58981444 263.83888909 -13 272 C-14.39412109 272.69222656 -14.39412109 272.69222656 -15.81640625 273.3984375 C-31.33259815 281.38828312 -43.90663234 293.62755462 -56 306 C-56.66 306.66 -57.32 307.32 -58 308 C-58.495 306.515 -58.495 306.515 -59 305 C-59.84643066 304.57847656 -59.84643066 304.57847656 -60.70996094 304.1484375 C-63.89982243 302.54874577 -66.15515295 300.13042412 -68.640625 297.625 C-69.16767029 297.09986816 -69.69471558 296.57473633 -70.23773193 296.03369141 C-71.34616928 294.92661117 -72.45210046 293.8170167 -73.55566406 292.70507812 C-75.25106301 290.99893025 -76.9569161 289.30375953 -78.6640625 287.609375 C-79.74022558 286.53189108 -80.81576851 285.45378733 -81.890625 284.375 C-82.65925873 283.61243896 -82.65925873 283.61243896 -83.44342041 282.83447266 C-87 279.22994091 -87 279.22994091 -87 277 C-85.38617052 275.54340023 -83.70636784 274.15951049 -82 272.8125 C-76.39483998 268.32404924 -70.83201966 263.83201966 -65.75 258.75 C-62.35132376 255.35132376 -58.87444033 252.04439499 -55.375 248.75 C-54.70726562 248.11320313 -54.03953125 247.47640625 -53.3515625 246.8203125 C-52.38476562 245.91152344 -52.38476562 245.91152344 -51.3984375 244.984375 C-50.52711182 244.16018066 -50.52711182 244.16018066 -49.63818359 243.31933594 C-48 242 -48 242 -45 241 C-45 240.34 -45 239.68 -45 239 C-43.42578125 237.484375 -43.42578125 237.484375 -41.3125 235.75 C-38.69150148 233.53578785 -36.36681177 231.38825984 -34.25 228.6875 C-32 226 -32 226 -30.09375 225.0625 C-27.62836044 223.81140679 -26.15215494 222.31290674 -24.25 220.3125 C-21.70278824 217.69997512 -19.14361352 215.18899229 -16.375 212.8125 C-12.48976097 209.47242297 -8.74413289 205.99610196 -5 202.5 C-0.76630547 198.54973504 3.49340369 194.65300025 7.87890625 190.87109375 C10.79798371 188.29606962 13.64617353 185.64692203 16.5 183 C20.62121162 179.17893922 24.77000432 175.40525745 29.01953125 171.7265625 C36.15614003 165.52103472 36.15614003 165.52103472 43 159 C41.85724609 157.78376953 41.85724609 157.78376953 40.69140625 156.54296875 C35.02317685 150.47619197 29.57629595 144.33545553 24.37890625 137.85546875 C19.80974874 132.3709792 14.88668854 127.20089186 10 122 C6.85387907 123.40162043 4.65010321 125.06796197 2.171875 127.44921875 C1.45386719 128.13306641 0.73585938 128.81691406 -0.00390625 129.52148438 C-0.74511719 130.23626953 -1.48632812 130.95105469 -2.25 131.6875 C-7.09898881 136.33408875 -11.98029823 140.899515 -17.05761719 145.29614258 C-20.27717321 148.12033583 -23.38383655 151.06280952 -26.5 154 C-30.92968407 158.15571662 -35.37600585 162.26802246 -39.98046875 166.23046875 C-42.69486061 168.60884305 -45.34577276 171.05503737 -48 173.5 C-51.2351015 176.48003961 -54.47824835 179.4431549 -57.8125 182.3125 C-62.44676753 186.32757521 -66.89047741 190.54663695 -71.36376953 194.73876953 C-75.71137919 198.8091717 -80.10250992 202.8238024 -84.54296875 206.79296875 C-87.38058085 209.3418572 -90.19181884 211.91881422 -93 214.5 C-96.58373723 217.79405086 -100.18331545 221.06850253 -103.8125 224.3125 C-108.13900961 228.19168067 -112.38528094 232.15166162 -116.625 236.125 C-124.29639686 243.31393092 -124.29639686 243.31393092 -128 246.5 C-135.19950292 252.74949051 -142.25799558 259.25799558 -149 266 C-149.99 265.67 -150.98 265.34 -152 265 C-152.02361408 240.19519891 -152.04111639 215.39039957 -152.05181217 190.58558941 C-152.05691574 179.0620199 -152.06386808 167.53845755 -152.07543945 156.01489258 C-152.17333106 56.64226445 -152.17333106 56.64226445 -151 17 C-104.2402207 -2.15063169 -49.87759486 -5.81725728 0 0 Z " fill="#000000" transform="translate(552,86)"/>
<path d="M0 0 C0.1504171 54.35443759 0.29544742 108.70888726 0.4332476 163.06335839 C0.4495187 169.47957626 0.46583443 175.89579403 0.48217773 182.31201172 C0.48705712 184.22805175 0.48705712 184.22805175 0.49203508 186.18279965 C0.54482084 206.86893687 0.6012221 227.55506274 0.6589582 248.24118666 C0.71811493 269.46511882 0.77338934 290.68905852 0.82505554 311.91301024 C0.8570619 325.01057949 0.89210082 338.10813343 0.93101191 351.20568402 C0.95740024 360.1856677 0.98001944 369.16565594 0.99967117 378.14565687 C1.01112256 383.32753927 1.02423915 388.50940341 1.04183006 393.69126892 C1.05790545 398.43750749 1.06923612 403.18373313 1.07683109 407.92999263 C1.08040594 409.64483413 1.08570553 411.3596731 1.09292836 413.07450311 C1.10251581 415.41144902 1.10572896 417.74832396 1.10743046 420.08528709 C1.11255668 422.02983491 1.11255668 422.02983491 1.11778647 424.01366651 C0.97965347 428.68860257 0.46537654 433.34623458 0 438 C18.48 437.67 36.96 437.34 56 437 C56 378.59 56 320.18 56 260 C56.99 259.67 57.98 259.34 59 259 C59.37125 259.70125 59.7425 260.4025 60.125 261.125 C61.71196971 263.55835356 63.12457429 265.20260458 65.1875 267.1875 C68 270 68 270 68 272 C68.89332031 272.38671875 68.89332031 272.38671875 69.8046875 272.78125 C72.1947437 274.10811394 73.40503112 275.39109343 75.125 277.5 C77.9406316 280.8352546 80.88978051 283.93704828 84 287 C87.6192933 290.57535651 91.05159931 294.22567425 94.33203125 298.11328125 C96.03817096 300.14768119 96.03817096 300.14768119 98.56303406 302.07766724 C101.73111437 305.87672931 101.70958064 308.91188002 101.65942383 313.64404297 C101.6699047 314.52213843 101.68038557 315.4002339 101.69118404 316.30493832 C101.72037534 319.28436391 101.71352585 322.26264021 101.70703125 325.2421875 C101.72032188 327.42593187 101.73570899 329.6096643 101.75299072 331.79338074 C101.7942449 337.86789347 101.80332097 343.94210624 101.80708694 350.01674271 C101.8152721 355.85086641 101.84675338 361.68483602 101.87646568 367.51888287 C101.96404481 385.17642778 101.98199678 402.83397789 101.99551392 420.49170685 C102.00004826 426.29425683 102.00620669 432.09680467 102.01245117 437.89935303 C102.07561986 497.59961303 102.06304954 557.29974762 102 617 C93.20370344 615.92777424 93.20370344 615.92777424 89.859375 615.02734375 C89.18132812 614.85009766 88.50328125 614.67285156 87.8046875 614.49023438 C86.78761719 614.21663086 86.78761719 614.21663086 85.75 613.9375 C81.74286974 612.86123546 78.19491739 612 74 612 C74 611.34 74 610.68 74 610 C73.41154297 609.90058105 72.82308594 609.80116211 72.21679688 609.69873047 C65.38996828 608.45105949 59.01600908 606.49313127 52.5 604.125 C50.88943726 603.54105469 50.88943726 603.54105469 49.24633789 602.9453125 C31.14936466 596.22766565 13.49983188 588.04143084 -3 578 C-4.1139917 577.32783447 -4.1139917 577.32783447 -5.25048828 576.64208984 C-30.77279497 561.15894136 -53.7140752 542.2550601 -74.875 521.25 C-75.64215332 520.48997681 -75.64215332 520.48997681 -76.42480469 519.71459961 C-80.47903859 515.64260706 -84.25963682 511.36027828 -88 507 C-88.81210938 506.05592285 -88.81210938 506.05592285 -89.640625 505.09277344 C-101.54016293 491.15475534 -112.09787933 476.36964167 -121.875 460.875 C-122.29813477 460.205896 -122.72126953 459.53679199 -123.15722656 458.84741211 C-126 454.25119182 -126 454.25119182 -126 452 C-126.66 451.67 -127.32 451.34 -128 451 C-129.32443806 448.60169324 -130.55627596 446.21247894 -131.75 443.75 C-132.10126953 443.03505371 -132.45253906 442.32010742 -132.81445312 441.58349609 C-133.88549238 439.39330829 -134.94517906 437.19804025 -136 435 C-136.31646484 434.3409668 -136.63292969 433.68193359 -136.95898438 433.00292969 C-142 422.44522777 -142 422.44522777 -142 420 C-142.66 419.67 -143.32 419.34 -144 419 C-144.73450496 416.94770673 -145.45384701 414.88905224 -146.10742188 412.80957031 C-147.08548782 409.73090979 -148.15494555 406.69300521 -149.234375 403.6484375 C-162.19930583 366.45468098 -168.34339159 329.5465071 -168.375 290.1875 C-168.37708466 289.13267426 -168.37916931 288.07784851 -168.38131714 286.99105835 C-168.37713566 268.33894872 -167.00465834 250.12885907 -163.75 231.75 C-163.53384033 230.5225708 -163.31768066 229.2951416 -163.0949707 228.03051758 C-153.86614295 177.13542435 -133.18071925 127.74308919 -101 87 C-100.16497698 85.90102139 -99.33173059 84.80069124 -98.5 83.69921875 C-92.01719285 75.18747784 -84.92831292 67.40614596 -77.54003906 59.67578125 C-76.0210535 58.0229092 -74.61329951 56.31468311 -73.2109375 54.5625 C-72.48132813 53.716875 -71.75171875 52.87125 -71 52 C-70.34 52 -69.68 52 -69 52 C-68.67 51.01 -68.34 50.02 -68 49 C-67.34 49 -66.68 49 -66 49 C-66 48.34 -66 47.68 -66 47 C-64.7421875 45.6953125 -64.7421875 45.6953125 -62.875 44.125 C-62.14023437 43.50238281 -61.40546875 42.87976563 -60.6484375 42.23828125 C-59.77445312 41.49964844 -58.90046875 40.76101562 -58 40 C-56.96984907 39.09937491 -55.94129519 38.1969209 -54.9140625 37.29296875 C-12.35576472 0 -12.35576472 0 0 0 Z " fill="#000000" transform="translate(344,128)"/>
<path d="M0 0 C1.26070312 0.06960938 2.52140625 0.13921875 3.8203125 0.2109375 C6.875 0.625 6.875 0.625 8.875 2.625 C10.85743121 3.42027763 12.86129839 4.16260556 14.875 4.875 C37.01214763 13.22818112 52.93294932 30.29949236 62.71704102 51.57739258 C78.42671496 87.00547414 79.57750634 129.64319966 65.97900391 166.02197266 C60.51620391 179.70816319 53.26780997 191.27616157 43.875 202.625 C43.23820313 203.45644531 42.60140625 204.28789063 41.9453125 205.14453125 C28.29734444 221.49634204 7.34989022 230.18126176 -13.34375 232.3984375 C-41.09938802 234.06148193 -65.64026299 223.8806035 -87.29070282 207.03424931 C-88.55902718 206.0598242 -89.85477189 205.12044658 -91.17037201 204.21086025 C-94.22910142 201.90316888 -96.68513131 200.03836972 -97.84983826 196.29597664 C-98.10810645 193.53369279 -98.11577381 190.8730837 -98.03320312 188.09985352 C-98.03437134 187.06495285 -98.03553955 186.03005219 -98.03674316 184.96379089 C-98.03119032 181.55910826 -97.9690662 178.15797316 -97.90625 174.75390625 C-97.89132163 172.38738417 -97.87993743 170.0208373 -97.87194824 167.65428162 C-97.84146206 161.4377467 -97.76292598 155.22271681 -97.67431641 149.0067749 C-97.592351 142.65902058 -97.5559137 136.31102207 -97.515625 129.96289062 C-97.4299311 117.51626729 -97.29346405 105.07075899 -97.125 92.625 C-96.135 92.13 -96.135 92.13 -95.125 91.625 C-88.69660648 98.90208593 -88.69660648 98.90208593 -86 102.3125 C-83.86467474 104.94606782 -81.53722409 107.23928387 -79.125 109.625 C-63.82766656 124.76184115 -63.82766656 124.76184115 -58.7265625 130.8046875 C-56.06947984 133.82468877 -53.16309807 136.59413686 -50.30078125 139.41796875 C-48.38002616 141.36631099 -46.58457195 143.35499209 -44.8125 145.4375 C-41.74999839 149.01398789 -38.47220041 152.31890105 -35.125 155.625 C-31.2128816 159.48913902 -27.48109899 163.41004189 -23.92578125 167.609375 C-20.81734259 171.0886686 -17.42618276 174.28883895 -14.06640625 177.5234375 C-12.125 179.625 -12.125 179.625 -12.125 181.625 C-11.465 181.625 -10.805 181.625 -10.125 181.625 C-9.85772095 181.03305847 -9.59044189 180.44111694 -9.31506348 179.83123779 C-8.10684113 177.5913356 -6.87423069 176.12071452 -5.08398438 174.32519531 C-4.46994751 173.70485413 -3.85591064 173.08451294 -3.2232666 172.44537354 C-2.56177612 171.78793152 -1.90028564 171.1304895 -1.21875 170.453125 C-0.53824585 169.7707074 0.1422583 169.08828979 0.84338379 168.38519287 C2.28001197 166.94720573 3.71916085 165.51173308 5.16064453 164.07861328 C7.37376429 161.87622972 9.57598472 159.66335067 11.77734375 157.44921875 C13.17383803 156.05404546 14.57095227 154.65949238 15.96875 153.265625 C16.63024048 152.60008606 17.29173096 151.93454712 17.9732666 151.24884033 C18.58730347 150.64110779 19.20134033 150.03337524 19.83398438 149.40722656 C20.64434143 148.59925629 20.64434143 148.59925629 21.47106934 147.77496338 C22.875 146.625 22.875 146.625 24.875 146.625 C25.143125 146.0475 25.41125 145.47 25.6875 144.875 C26.89300803 142.59087952 28.30635523 140.67068469 29.875 138.625 C29.01777344 137.779375 28.16054688 136.93375 27.27734375 136.0625 C26.12225821 134.9168054 24.96731815 133.77096412 23.8125 132.625 C23.25111328 132.07199219 22.68972656 131.51898437 22.11132812 130.94921875 C19.17755675 128.03221179 16.36239017 125.06842531 13.67578125 121.92138672 C9.82193438 117.49626402 5.71547942 113.37260215 1.53515625 109.2578125 C-0.03723675 107.69804506 -1.60949871 106.13814552 -3.18164062 104.578125 C-5.6378712 102.14686969 -8.0956879 99.71725729 -10.5559082 97.29003906 C-12.94652835 94.92943461 -15.33104474 92.56280197 -17.71484375 90.1953125 C-18.83027809 89.1000676 -18.83027809 89.1000676 -19.96824646 87.98269653 C-20.98544518 86.97056595 -20.98544518 86.97056595 -22.02319336 85.93798828 C-22.62385117 85.3447879 -23.22450897 84.75158752 -23.84336853 84.14041138 C-25.125 82.625 -25.125 82.625 -25.125 80.625 C-27.105 79.635 -27.105 79.635 -29.125 78.625 C-29.125 77.965 -29.125 77.305 -29.125 76.625 C-29.785 76.625 -30.445 76.625 -31.125 76.625 C-31.125 75.965 -31.125 75.305 -31.125 74.625 C-31.785 74.625 -32.445 74.625 -33.125 74.625 C-34.33300781 73.39575195 -34.33300781 73.39575195 -35.828125 71.55078125 C-41.75808342 64.5777032 -48.38637652 58.259072 -54.875 51.8125 C-56.21507753 50.47744816 -57.55492318 49.14216353 -58.89453125 47.80664062 C-61.83101886 44.87990642 -64.76968852 41.9553845 -67.71038818 39.03288269 C-68.17721008 38.5682814 -68.64403198 38.10368011 -69.125 37.625 C-69.67963928 37.11193802 -70.23427856 36.59887604 -70.8057251 36.07026672 C-72.125 34.625 -72.125 34.625 -72.125 32.625 C-72.785 32.625 -73.445 32.625 -74.125 32.625 C-75.49810707 31.33266393 -76.83534824 30.00062854 -78.125 28.625 C-74.71364792 20.62964356 -66.33133622 15.84854394 -58.99609375 11.8515625 C-58.37863281 11.44679688 -57.76117187 11.04203125 -57.125 10.625 C-57.125 9.965 -57.125 9.305 -57.125 8.625 C-56.26519531 8.51027344 -55.40539062 8.39554687 -54.51953125 8.27734375 C-51.03213412 7.60715351 -48.09219018 6.53701842 -44.8125 5.1875 C-30.11525742 -0.60131178 -15.61693357 -0.86614926 0 0 Z " fill="#000000" transform="translate(593.125,391.375)"/>
<path d="M0 0 C1.83147583 -0.00326294 1.83147583 -0.00326294 3.69995117 -0.0065918 C5.00295166 -0.00183838 6.30595215 0.00291504 7.6484375 0.0078125 C9.62710815 0.01397583 9.62710815 0.01397583 11.64575195 0.02026367 C44.21628193 0.20665585 44.21628193 0.20665585 52.4609375 6.4453125 C56.87376128 11.07339598 58.55689356 15.54322397 59.09765625 21.8203125 C58.93562454 26.86887934 56.79824441 30.97060213 54.0234375 35.1328125 C53.3634375 35.1328125 52.7034375 35.1328125 52.0234375 35.1328125 C52.0234375 35.7928125 52.0234375 36.4528125 52.0234375 37.1328125 C51.3634375 37.7928125 50.7034375 38.4528125 50.0234375 39.1328125 C50.63832031 39.59429688 51.25320313 40.05578125 51.88671875 40.53125 C57.89908356 45.38333388 61.09206366 49.35523617 62.0234375 57.1328125 C62.23916898 63.32738775 60.80326567 69.15603875 57.0234375 74.1328125 C45.15577608 85.24617341 28.32141891 83.51209104 13.2734375 83.3203125 C11.2083431 83.30523764 9.14323805 83.29155419 7.078125 83.27929688 C2.05962916 83.24651524 -2.95834701 83.19488761 -7.9765625 83.1328125 C-8.1015625 75.5078125 -8.1015625 75.5078125 -6.9765625 72.1328125 C-6.90869074 70.63420399 -6.89156286 69.13278843 -6.9140625 67.6328125 C-6.92308594 66.859375 -6.93210937 66.0859375 -6.94140625 65.2890625 C-6.95300781 64.5775 -6.96460938 63.8659375 -6.9765625 63.1328125 C-6.9765625 60.53873525 -6.96094519 57.94554169 -6.94140625 55.3515625 C-6.93210099 53.44531342 -6.92299406 51.53906337 -6.9140625 49.6328125 C-6.90568359 48.66988281 -6.89730469 47.70695313 -6.88867188 46.71484375 C-6.88544922 45.79058594 -6.88222656 44.86632812 -6.87890625 43.9140625 C-6.87366943 43.06908203 -6.86843262 42.22410156 -6.86303711 41.35351562 C-6.88627652 38.95803607 -6.88627652 38.95803607 -7.9765625 36.1328125 C-7.88671949 34.27509088 -7.73044389 32.42033265 -7.5390625 30.5703125 C-7.04653787 24.89028823 -6.86021085 19.26726773 -6.8515625 13.5703125 C-6.84713135 12.79679443 -6.8427002 12.02327637 -6.83813477 11.22631836 C-6.84706682 7.69116809 -7.02557093 4.53305596 -7.9765625 1.1328125 C-5.24242518 -0.23425616 -3.05857311 0.00312875 0 0 Z M14.0234375 16.1328125 C12.88863223 19.74274422 12.92327983 23.1170452 12.9609375 26.8828125 C12.96996094 28.05328125 12.97898437 29.22375 12.98828125 30.4296875 C12.99988281 31.32171875 13.01148438 32.21375 13.0234375 33.1328125 C16.25243176 33.2203252 19.48111866 33.27337396 22.7109375 33.3203125 C23.62294922 33.34544922 24.53496094 33.37058594 25.47460938 33.39648438 C32.26202579 33.49813014 32.26202579 33.49813014 38.0234375 30.1328125 C39.07631343 26.90399297 39.14246901 24.77260686 38.5234375 21.4453125 C36.41624337 18.19672155 33.62070128 17.19232786 30.0234375 16.1328125 C27.1931949 15.8069644 24.4297183 15.84384182 21.5859375 15.9453125 C20.48862305 15.96561523 20.48862305 15.96561523 19.36914062 15.98632812 C17.58691328 16.02127376 15.80507177 16.07506445 14.0234375 16.1328125 Z M14.0234375 47.1328125 C13.01417271 51.28907618 12.92104171 55.17646344 12.9609375 59.4453125 C12.96996094 60.69957031 12.97898437 61.95382812 12.98828125 63.24609375 C12.99988281 64.19871094 13.01148438 65.15132812 13.0234375 66.1328125 C16.81126765 67.39542255 20.38865576 67.35598306 24.3359375 67.3828125 C25.08294922 67.4034375 25.82996094 67.4240625 26.59960938 67.4453125 C31.47750465 67.4795734 34.81337528 66.85884371 39.0234375 64.1328125 C41.47909868 60.44932073 41.7149621 57.41162094 41.0234375 53.1328125 C38.39018272 49.28420936 35.43185745 48.30569487 31.0234375 47.1328125 C28.0585831 46.90656745 25.11959509 46.94234632 22.1484375 47.0078125 C21.3646875 47.01683594 20.5809375 47.02585937 19.7734375 47.03515625 C17.85663695 47.05853187 15.93999559 47.09439597 14.0234375 47.1328125 Z " fill="#010101" transform="translate(375.9765625,837.8671875)"/>
<path d="M0 0 C0.86367188 0.00483398 1.72734375 0.00966797 2.6171875 0.01464844 C3.50664063 0.01948242 4.39609375 0.02431641 5.3125 0.02929688 C8.16434512 0.05426051 11.01559638 0.09433918 13.8671875 0.13964844 C14.79466797 0.1522168 15.72214844 0.16478516 16.67773438 0.17773438 C31.07556251 0.42667353 44.44277203 1.30511186 55.8671875 11.13964844 C65.79925382 21.64941884 67.34844022 33.53855379 67.15234375 47.37792969 C66.77742471 56.95814749 62.87904075 64.41982108 56.7421875 71.63964844 C43.36531883 83.27170815 28.40907319 83.58639651 11.5546875 83.32714844 C9.83139201 83.31206169 8.10808363 83.29838041 6.38476562 83.28613281 C2.21191405 83.25347217 -1.96030202 83.20191518 -6.1328125 83.13964844 C-7.65554563 80.09418218 -7.27135374 76.92531442 -7.26220703 73.5847168 C-7.26483551 72.41625969 -7.26483551 72.41625969 -7.26751709 71.22419739 C-7.2719279 68.6426065 -7.2690006 66.0610838 -7.265625 63.47949219 C-7.26629819 61.69112637 -7.26726835 59.90276064 -7.26852417 58.11439514 C-7.27000004 54.36425913 -7.26784987 50.61414692 -7.26318359 46.86401367 C-7.25748226 42.0460798 -7.26076857 37.22820157 -7.26675606 32.41026974 C-7.27036114 28.71724525 -7.2692234 25.02423406 -7.26662827 21.33120918 C-7.26595906 19.55411332 -7.26678718 17.77701627 -7.26910782 15.9999218 C-7.27163393 13.52164359 -7.26779455 11.0434569 -7.26220703 8.56518555 C-7.26423126 7.82386383 -7.26625549 7.08254211 -7.26834106 6.3187561 C-7.24077928 -0.24582142 -6.4775913 0.01846219 0 0 Z M12.8671875 18.13964844 C12.8671875 34.30964844 12.8671875 50.47964844 12.8671875 67.13964844 C29.43972302 67.28705701 29.43972302 67.28705701 43.0546875 59.01464844 C48.06385328 51.06907513 48.78178827 42.75298842 46.8671875 33.70214844 C45.13200273 27.73179704 41.95488981 23.69480294 36.8671875 20.13964844 C32.14759599 18.12559801 27.67250839 17.70676625 22.6171875 17.45214844 C21.89789062 17.40509766 21.17859375 17.35804688 20.4375 17.30957031 C16.52952853 16.99659147 16.52952853 16.99659147 12.8671875 18.13964844 Z " fill="#010101" transform="translate(595.1328125,837.8603515625)"/>
<path d="M0 0 C9.549375 -0.020625 19.09875 -0.04125 28.9375 -0.0625 C33.46585571 -0.07615601 33.46585571 -0.07615601 38.08569336 -0.09008789 C40.46207637 -0.0930068 42.83845988 -0.09555541 45.21484375 -0.09765625 C46.462052 -0.10277222 47.70926025 -0.10788818 48.9942627 -0.11315918 C50.17170044 -0.11328003 51.34913818 -0.11340088 52.56225586 -0.11352539 C54.1044706 -0.11685631 54.1044706 -0.11685631 55.67784119 -0.12025452 C58 0 58 0 59 1 C59 6.28 59 11.56 59 17 C45.8 17 32.6 17 19 17 C19 22.28 19 27.56 19 33 C29.89 33 40.78 33 52 33 C52.495 40.425 52.495 40.425 53 48 C48.80382332 50.09808834 45.96413947 50.27308884 41.4375 50.1875 C40.73020752 50.18032959 40.02291504 50.17315918 39.29418945 50.16577148 C24.83337263 49.94445754 24.83337263 49.94445754 19 48 C19 54.27 19 60.54 19 67 C21.536875 66.835 24.07375 66.67 26.6875 66.5 C37.12567812 65.87317961 47.54725163 65.90722413 58 66 C59 70 59 70 59 83 C39.53 83 20.06 83 0 83 C0 55.61 0 28.22 0 0 Z " fill="#020202" transform="translate(725,838)"/>
<path d="M0 0 C0.84755859 0.00322266 1.69511719 0.00644531 2.56835938 0.00976562 C3.44943359 0.01814453 4.33050781 0.02652344 5.23828125 0.03515625 C6.57729492 0.04192383 6.57729492 0.04192383 7.94335938 0.04882812 C10.14590112 0.06060642 12.34830724 0.07705461 14.55078125 0.09765625 C17.90664947 7.28532004 20.66584431 14.64187015 23.36328125 22.09765625 C24.07160042 24.0470235 24.78079181 25.99607216 25.49000549 27.94511414 C26.00068782 29.34886959 26.5109621 30.75277355 27.02085876 32.15681458 C28.85163752 37.19347923 30.70127718 42.22295659 32.55970764 47.2494812 C33.94626706 50.9999388 35.32910249 54.75176509 36.71176147 58.50366211 C37.39542255 60.35613423 38.08066158 62.20802478 38.76748657 64.05932617 C39.7348848 66.6681327 40.69621269 69.27910234 41.65625 71.890625 C41.94946136 72.6768071 42.24267273 73.4629892 42.54476929 74.272995 C43.66751499 77.34173234 44.55078125 79.80266773 44.55078125 83.09765625 C37.95078125 83.09765625 31.35078125 83.09765625 24.55078125 83.09765625 C21.58078125 74.68265625 21.58078125 74.68265625 18.55078125 66.09765625 C9.64078125 66.09765625 0.73078125 66.09765625 -8.44921875 66.09765625 C-10.42921875 71.70765625 -12.40921875 77.31765625 -14.44921875 83.09765625 C-21.37921875 83.09765625 -28.30921875 83.09765625 -35.44921875 83.09765625 C-29.22592114 65.41107033 -22.89756841 47.7660148 -16.44921875 30.16015625 C-16.1227536 29.26861847 -15.79628845 28.37708069 -15.45993042 27.45852661 C-14.51951293 24.89138185 -13.5783649 22.32450681 -12.63671875 19.7578125 C-12.3589711 19.00056885 -12.08122345 18.2433252 -11.7950592 17.46313477 C-11.53011154 16.7419043 -11.26516388 16.02067383 -10.9921875 15.27758789 C-10.74001465 14.5865799 -10.4878418 13.8955719 -10.22802734 13.18362427 C-9.68642832 11.73300053 -9.12535239 10.28956092 -8.54931641 8.8522644 C-7.79588086 6.95440189 -7.11608178 5.02764095 -6.44921875 3.09765625 C-6.77921875 2.43765625 -7.10921875 1.77765625 -7.44921875 1.09765625 C-4.6251011 0.1562837 -2.92003843 -0.01959757 0 0 Z M4.55078125 22.09765625 C1.58078125 31.00765625 -1.38921875 39.91765625 -4.44921875 49.09765625 C1.49078125 49.09765625 7.43078125 49.09765625 13.55078125 49.09765625 C13.09703125 47.36515625 12.64328125 45.63265625 12.17578125 43.84765625 C11.92054688 42.873125 11.6653125 41.89859375 11.40234375 40.89453125 C10.66425604 38.18002899 10.66425604 38.18002899 9.55078125 36.12890625 C8.23091858 33.4479352 7.61991449 30.75039525 6.92578125 27.84765625 C6.53519531 26.23117187 6.53519531 26.23117187 6.13671875 24.58203125 C5.94335938 23.7621875 5.75 22.94234375 5.55078125 22.09765625 C5.22078125 22.09765625 4.89078125 22.09765625 4.55078125 22.09765625 Z " fill="#020202" transform="translate(264.44921875,837.90234375)"/>
<path d="M0 0 C0.82886719 -0.020625 1.65773438 -0.04125 2.51171875 -0.0625 C3.30964844 -0.06765625 4.10757813 -0.0728125 4.9296875 -0.078125 C5.66171387 -0.0874707 6.39374023 -0.09681641 7.14794922 -0.10644531 C9.84856956 0.38045339 10.51198324 1.01240034 12.125 3.25 C13.14356056 5.78472317 14.03560804 8.26067943 14.8671875 10.85546875 C15.11743683 11.61233475 15.36768616 12.36920074 15.6255188 13.14900208 C16.42548926 15.57581147 17.21276546 18.00653324 18 20.4375 C18.52133443 22.02305005 19.04346248 23.60833939 19.56640625 25.19335938 C21.1058056 29.87257572 22.6185573 34.56008687 24.125 39.25 C24.49872742 40.40704437 24.49872742 40.40704437 24.88000488 41.58746338 C25.59424387 43.80284965 26.30213279 46.02015569 27.0078125 48.23828125 C27.22267303 48.90361374 27.43753357 49.56894623 27.65890503 50.25444031 C28.54017146 53.04960215 29.125 55.29719497 29.125 58.25 C30.115 58.25 31.105 58.25 32.125 58.25 C32.26228516 56.87593994 32.26228516 56.87593994 32.40234375 55.47412109 C33.1865079 50.02776016 34.99604232 44.88386062 36.6875 39.6640625 C37.21452515 38.01777359 37.21452515 38.01777359 37.75219727 36.33822632 C38.49260273 34.02947419 39.23574005 31.72159658 39.98144531 29.41455078 C41.1271547 25.86833073 42.26344763 22.3191949 43.3984375 18.76953125 C44.11924088 16.52586465 44.84057628 14.28236887 45.5625 12.0390625 C45.90418213 10.9724942 46.24586426 9.9059259 46.59790039 8.80703735 C46.9149292 7.82866913 47.23195801 6.8503009 47.55859375 5.84228516 C47.83759521 4.97737457 48.11659668 4.11246399 48.40405273 3.22134399 C49.125 1.25 49.125 1.25 50.125 0.25 C51.6137186 0.16330568 53.106445 0.14296506 54.59765625 0.15234375 C55.49677734 0.15556641 56.39589844 0.15878906 57.32226562 0.16210938 C58.74055664 0.17467773 58.74055664 0.17467773 60.1875 0.1875 C61.6115918 0.19426758 61.6115918 0.19426758 63.06445312 0.20117188 C65.41803065 0.2129989 67.77148477 0.22947975 70.125 0.25 C67.2281162 10.23390308 63.9142183 20.07772819 60.625 29.9375 C60.31874695 30.85698425 60.0124939 31.77646851 59.69696045 32.72381592 C54.05606719 49.64502699 48.17875757 66.47244331 42.125 83.25 C34.535 83.25 26.945 83.25 19.125 83.25 C14.175 69.39 9.225 55.53 4.125 41.25 C3.465 41.25 2.805 41.25 2.125 41.25 C2.07601562 40.46753906 2.02703125 39.68507813 1.9765625 38.87890625 C1.86441406 37.36103516 1.86441406 37.36103516 1.75 35.8125 C1.68039062 34.80316406 1.61078125 33.79382813 1.5390625 32.75390625 C1.40242187 31.92761719 1.26578125 31.10132813 1.125 30.25 C0.465 29.92 -0.195 29.59 -0.875 29.25 C-1.515625 27.34375 -1.515625 27.34375 -2.125 24.75 C-4.1688995 16.73325429 -7.06002271 9.02079492 -9.875 1.25 C-7.71595181 -0.90904819 -2.98615455 0.01840465 0 0 Z " fill="#020202" transform="translate(848.875,837.75)"/>
<path d="M0 0 C0.83724609 -0.01224609 1.67449219 -0.02449219 2.53710938 -0.03710938 C3.73883789 -0.04000977 3.73883789 -0.04000977 4.96484375 -0.04296875 C5.70210693 -0.04707764 6.43937012 -0.05118652 7.19897461 -0.05541992 C9.0625 0.1875 9.0625 0.1875 11.0625 2.1875 C11.26504517 4.85769653 11.26504517 4.85769653 11.19775391 8.28955078 C11.17758209 9.57072784 11.15741028 10.85190491 11.1366272 12.17190552 C11.10432163 13.57554617 11.07179482 14.97918174 11.0390625 16.3828125 C11.01289934 17.81483397 10.98763201 19.24687206 10.96322632 20.67892456 C10.89653608 24.45042944 10.81765228 28.22158527 10.73626709 31.99279785 C10.65538497 35.84011423 10.58598131 39.68763554 10.515625 43.53515625 C10.37584663 51.0861858 10.223192 58.63688349 10.0625 66.1875 C11.59958618 66.17964478 11.59958618 66.17964478 13.16772461 66.17163086 C16.95645276 66.15358031 20.74517709 66.1420678 24.53393555 66.13256836 C26.17619464 66.12752826 27.81844923 66.12069622 29.46069336 66.11206055 C31.81625479 66.09998074 34.17175709 66.09426861 36.52734375 66.08984375 C37.26589096 66.08468246 38.00443817 66.07952118 38.7653656 66.07420349 C40.53148088 66.0740075 42.29747146 66.12555281 44.0625 66.1875 C48.07636486 70.20136486 45.0625 77.51103788 45.0625 83.1875 C26.9125 83.1875 8.7625 83.1875 -9.9375 83.1875 C-9.97760881 62.76320298 -9.97760881 62.76320298 -9.98632812 54.08789062 C-9.9923166 48.15762442 -9.99941703 42.22737358 -10.01293945 36.29711914 C-10.02376822 31.51851164 -10.02977681 26.73992062 -10.03237724 21.9613018 C-10.03423151 20.13396381 -10.03785216 18.30662676 -10.04323006 16.47929573 C-10.05044036 13.92896671 -10.05149095 11.37870663 -10.05102539 8.82836914 C-10.05462067 8.06520386 -10.05821594 7.30203857 -10.06192017 6.51574707 C-10.04616353 -1.40845504 -7.03361397 0.00538974 0 0 Z " fill="#020202" transform="translate(126.9375,837.8125)"/>
<path d="M0 0 C3.01455189 2.6377329 3.84675779 4.49238516 5 8.3125 C5 13.06648345 3.93866346 16.25299359 1 20 C-2.82022471 22.37863048 -5.13604937 23.0148957 -9.625 22.9375 C-14.25243632 21.65210102 -16.8628381 19.86081039 -19.375 15.75 C-20.52472854 10.69119441 -19.93827225 6.59853791 -17.3125 2.125 C-11.95378518 -2.79922443 -6.47813976 -2.58632956 0 0 Z " fill="#030303" transform="translate(519,900)"/>
<path d="M0 0 C0.33 0 0.66 0 1 0 C1 3.96 1 7.92 1 12 C0.67 12 0.34 12 0 12 C0 8.04 0 4.08 0 0 Z " fill="#050606" transform="translate(720,490)"/>
<path d="M0 0 C0.33 0 0.66 0 1 0 C1 1.65 1 3.3 1 5 C0.67 5 0.34 5 0 5 C0 3.35 0 1.7 0 0 Z " fill="#050505" transform="translate(720,503)"/>
<path d="" fill="#1D1B1C" transform="translate(0,0)"/>
<path d="M0 0 C3 1 3 1 3 1 Z " fill="#0A0909" transform="translate(592,664)"/>
<path d="" fill="#151516" transform="translate(0,0)"/>
<path d="M0 0 C3 1 3 1 3 1 Z " fill="#060505" transform="translate(555,392)"/>
<path d="" fill="#1C1D1D" transform="translate(0,0)"/>
<path d="" fill="#1E1E1D" transform="translate(0,0)"/>
<path d="M0 0 C2 1 2 1 2 1 Z " fill="#262524" transform="translate(496,912)"/>
<path d="" fill="#1A1A19" transform="translate(0,0)"/>
<path d="" fill="#1D1C1D" transform="translate(0,0)"/>
<path d="" fill="#1B1C1B" transform="translate(0,0)"/>
<path d="" fill="#222121" transform="translate(0,0)"/>
<path d="" fill="#1C1C1B" transform="translate(0,0)"/>
<path d="M0 0 C2 1 2 1 2 1 Z " fill="#313031" transform="translate(900,836)"/>
<path d="M0 0 C2 1 2 1 2 1 Z " fill="#08080A" transform="translate(574,664)"/>
<path d="" fill="#131311" transform="translate(0,0)"/>
<path d="" fill="#17191A" transform="translate(0,0)"/>
<path d="M0 0 C2 1 2 1 2 1 Z " fill="#060708" transform="translate(552,393)"/>
<path d="" fill="#131315" transform="translate(0,0)"/>
<path d="" fill="#131213" transform="translate(0,0)"/>
<path d="M0 0 C2 1 2 1 2 1 Z " fill="#060605" transform="translate(536,296)"/>
<path d="M0 0 C2 1 2 1 2 1 Z " fill="#131212" transform="translate(313,144)"/>
<path d="M0 0 C2 1 2 1 2 1 Z " fill="#161615" transform="translate(448,88)"/>
<path d="" fill="#262625" transform="translate(0,0)"/>
<path d="" fill="#232323" transform="translate(0,0)"/>
<path d="" fill="#2A2829" transform="translate(0,0)"/>
<path d="" fill="#262423" transform="translate(0,0)"/>
<path d="" fill="#1C1E1D" transform="translate(0,0)"/>
<path d="" fill="#262627" transform="translate(0,0)"/>
<path d="" fill="#262826" transform="translate(0,0)"/>
<path d="" fill="#1F1D1C" transform="translate(0,0)"/>
<path d="" fill="#272A27" transform="translate(0,0)"/>
<path d="" fill="#1F201E" transform="translate(0,0)"/>
<path d="" fill="#201F1F" transform="translate(0,0)"/>
<path d="" fill="#1D1C1E" transform="translate(0,0)"/>
<path d="" fill="#1E1F1E" transform="translate(0,0)"/>
<path d="" fill="#252325" transform="translate(0,0)"/>
<path d="" fill="#1B1D1C" transform="translate(0,0)"/>
<path d="" fill="#1B191A" transform="translate(0,0)"/>
<path d="" fill="#1B1B1A" transform="translate(0,0)"/>
<path d="" fill="#222321" transform="translate(0,0)"/>
<path d="" fill="#1E1E1D" transform="translate(0,0)"/>
<path d="" fill="#232121" transform="translate(0,0)"/>
<path d="" fill="#181618" transform="translate(0,0)"/>
<path d="" fill="#222021" transform="translate(0,0)"/>
<path d="" fill="#191819" transform="translate(0,0)"/>
<path d="" fill="#1F201F" transform="translate(0,0)"/>
<path d="" fill="#21201E" transform="translate(0,0)"/>
<path d="" fill="#1A1D1C" transform="translate(0,0)"/>
<path d="" fill="#181A19" transform="translate(0,0)"/>
<path d="" fill="#1E1E1C" transform="translate(0,0)"/>
<path d="" fill="#1D1D1B" transform="translate(0,0)"/>
<path d="" fill="#1D1C1B" transform="translate(0,0)"/>
<path d="" fill="#151515" transform="translate(0,0)"/>
<path d="" fill="#171515" transform="translate(0,0)"/>
<path d="" fill="#1D1C1D" transform="translate(0,0)"/>
<path d="" fill="#191718" transform="translate(0,0)"/>
<path d="" fill="#222222" transform="translate(0,0)"/>
<path d="" fill="#1C1C1A" transform="translate(0,0)"/>
<path d="" fill="#1A1816" transform="translate(0,0)"/>
<path d="" fill="#1B1A1D" transform="translate(0,0)"/>
<path d="" fill="#252123" transform="translate(0,0)"/>
<path d="" fill="#212021" transform="translate(0,0)"/>
<path d="" fill="#1C1B1E" transform="translate(0,0)"/>
<path d="" fill="#1B1A1A" transform="translate(0,0)"/>
<path d="" fill="#181818" transform="translate(0,0)"/>
<path d="" fill="#1E1C20" transform="translate(0,0)"/>
<path d="" fill="#1B1918" transform="translate(0,0)"/>
<path d="" fill="#282828" transform="translate(0,0)"/>
<path d="" fill="#2B2A2C" transform="translate(0,0)"/>
<path d="" fill="#1C2121" transform="translate(0,0)"/>
<path d="" fill="#17181A" transform="translate(0,0)"/>
<path d="" fill="#191919" transform="translate(0,0)"/>
<path d="" fill="#1C1E1D" transform="translate(0,0)"/>
<path d="" fill="#211E20" transform="translate(0,0)"/>
<path d="" fill="#171617" transform="translate(0,0)"/>
<path d="" fill="#17171B" transform="translate(0,0)"/>
<path d="" fill="#1F1D1D" transform="translate(0,0)"/>
<path d="" fill="#242320" transform="translate(0,0)"/>
<path d="" fill="#1E211E" transform="translate(0,0)"/>
<path d="" fill="#1E1E1E" transform="translate(0,0)"/>
<path d="" fill="#1A1E1D" transform="translate(0,0)"/>
<path d="" fill="#202122" transform="translate(0,0)"/>
<path d="" fill="#201F1F" transform="translate(0,0)"/>
<path d="" fill="#1D1C19" transform="translate(0,0)"/>
<path d="" fill="#1C1A1B" transform="translate(0,0)"/>
<path d="" fill="#2D2D2E" transform="translate(0,0)"/>
<path d="" fill="#222220" transform="translate(0,0)"/>
<path d="" fill="#393A37" transform="translate(0,0)"/>
<path d="" fill="#262324" transform="translate(0,0)"/>
<path d="" fill="#211F20" transform="translate(0,0)"/>
<path d="" fill="#212020" transform="translate(0,0)"/>
<path d="" fill="#2C2C2A" transform="translate(0,0)"/>
<path d="" fill="#212120" transform="translate(0,0)"/>
<path d="" fill="#131111" transform="translate(0,0)"/>
<path d="" fill="#131112" transform="translate(0,0)"/>
<path d="" fill="#151515" transform="translate(0,0)"/>
<path d="" fill="#151413" transform="translate(0,0)"/>
<path d="" fill="#131415" transform="translate(0,0)"/>
<path d="" fill="#131215" transform="translate(0,0)"/>
<path d="" fill="#111214" transform="translate(0,0)"/>
<path d="" fill="#131313" transform="translate(0,0)"/>
<path d="" fill="#121412" transform="translate(0,0)"/>
<path d="" fill="#131311" transform="translate(0,0)"/>
<path d="" fill="#141415" transform="translate(0,0)"/>
<path d="" fill="#111211" transform="translate(0,0)"/>
<path d="" fill="#090D0A" transform="translate(0,0)"/>
<path d="" fill="#0C0D0B" transform="translate(0,0)"/>
<path d="" fill="#0A0C0A" transform="translate(0,0)"/>
<path d="" fill="#0B0B0B" transform="translate(0,0)"/>
<path d="" fill="#111311" transform="translate(0,0)"/>
<path d="" fill="#0A090A" transform="translate(0,0)"/>
<path d="" fill="#0A0B0B" transform="translate(0,0)"/>
<path d="" fill="#131414" transform="translate(0,0)"/>
<path d="" fill="#141311" transform="translate(0,0)"/>
<path d="" fill="#0B0A08" transform="translate(0,0)"/>
<path d="" fill="#121313" transform="translate(0,0)"/>
<path d="" fill="#08090B" transform="translate(0,0)"/>
<path d="" fill="#171414" transform="translate(0,0)"/>
<path d="" fill="#131213" transform="translate(0,0)"/>
<path d="" fill="#141314" transform="translate(0,0)"/>
<path d="" fill="#040501" transform="translate(0,0)"/>
<path d="" fill="#131313" transform="translate(0,0)"/>
<path d="" fill="#040405" transform="translate(0,0)"/>
<path d="" fill="#121213" transform="translate(0,0)"/>
<path d="" fill="#050604" transform="translate(0,0)"/>
<path d="" fill="#070604" transform="translate(0,0)"/>
<path d="" fill="#060707" transform="translate(0,0)"/>
<path d="" fill="#070707" transform="translate(0,0)"/>
<path d="" fill="#040605" transform="translate(0,0)"/>
<path d="" fill="#141411" transform="translate(0,0)"/>
<path d="" fill="#121211" transform="translate(0,0)"/>
<path d="" fill="#050406" transform="translate(0,0)"/>
<path d="" fill="#070906" transform="translate(0,0)"/>
<path d="" fill="#131316" transform="translate(0,0)"/>
<path d="" fill="#070504" transform="translate(0,0)"/>
<path d="" fill="#040504" transform="translate(0,0)"/>
<path d="" fill="#050505" transform="translate(0,0)"/>
<path d="" fill="#050606" transform="translate(0,0)"/>
<path d="" fill="#181A1A" transform="translate(0,0)"/>
<path d="" fill="#060605" transform="translate(0,0)"/>
<path d="" fill="#060404" transform="translate(0,0)"/>
<path d="" fill="#161516" transform="translate(0,0)"/>
<path d="" fill="#060606" transform="translate(0,0)"/>
<path d="" fill="#1B1B1D" transform="translate(0,0)"/>
<path d="" fill="#1B1E1D" transform="translate(0,0)"/>
<path d="" fill="#060606" transform="translate(0,0)"/>
<path d="" fill="#070A0A" transform="translate(0,0)"/>
<path d="" fill="#050503" transform="translate(0,0)"/>
<path d="" fill="#080807" transform="translate(0,0)"/>
<path d="" fill="#0B0A0A" transform="translate(0,0)"/>
<path d="" fill="#0B0B09" transform="translate(0,0)"/>
<path d="" fill="#0B0B0A" transform="translate(0,0)"/>
<path d="" fill="#080705" transform="translate(0,0)"/>
<path d="" fill="#0E0D0E" transform="translate(0,0)"/>
<path d="" fill="#0A0807" transform="translate(0,0)"/>
<path d="" fill="#09090A" transform="translate(0,0)"/>
<path d="" fill="#0A0909" transform="translate(0,0)"/>
<path d="" fill="#0A0909" transform="translate(0,0)"/>
<path d="" fill="#060907" transform="translate(0,0)"/>
<path d="" fill="#0A0B09" transform="translate(0,0)"/>
<path d="" fill="#060606" transform="translate(0,0)"/>
<path d="" fill="#080806" transform="translate(0,0)"/>
<path d="" fill="#0A0909" transform="translate(0,0)"/>
<path d="" fill="#0C0E0C" transform="translate(0,0)"/>
<path d="" fill="#0B0D0A" transform="translate(0,0)"/>
<path d="" fill="#151615" transform="translate(0,0)"/>
<path d="" fill="#090B0A" transform="translate(0,0)"/>
<path d="" fill="#121112" transform="translate(0,0)"/>
<path d="" fill="#0C0B08" transform="translate(0,0)"/>
<path d="" fill="#151415" transform="translate(0,0)"/>
<path d="" fill="#090706" transform="translate(0,0)"/>
<path d="" fill="#080607" transform="translate(0,0)"/>
<path d="" fill="#090909" transform="translate(0,0)"/>
<path d="" fill="#131414" transform="translate(0,0)"/>
<path d="" fill="#060905" transform="translate(0,0)"/>
<path d="" fill="#121212" transform="translate(0,0)"/>
<path d="" fill="#060506" transform="translate(0,0)"/>
<path d="" fill="#12110F" transform="translate(0,0)"/>
<path d="" fill="#060604" transform="translate(0,0)"/>
<path d="" fill="#161516" transform="translate(0,0)"/>
<path d="" fill="#080607" transform="translate(0,0)"/>
<path d="" fill="#171515" transform="translate(0,0)"/>
<path d="" fill="#070809" transform="translate(0,0)"/>
<path d="" fill="#060707" transform="translate(0,0)"/>
<path d="" fill="#050505" transform="translate(0,0)"/>
<path d="" fill="#121511" transform="translate(0,0)"/>
<path d="" fill="#0D1214" transform="translate(0,0)"/>
<path d="" fill="#060504" transform="translate(0,0)"/>
<path d="" fill="#070805" transform="translate(0,0)"/>
<path d="" fill="#060505" transform="translate(0,0)"/>
<path d="" fill="#131213" transform="translate(0,0)"/>
<path d="" fill="#111411" transform="translate(0,0)"/>
<path d="" fill="#131214" transform="translate(0,0)"/>
<path d="" fill="#141213" transform="translate(0,0)"/>
<path d="" fill="#121313" transform="translate(0,0)"/>
<path d="" fill="#0C0A0A" transform="translate(0,0)"/>
<path d="" fill="#131413" transform="translate(0,0)"/>
<path d="" fill="#141313" transform="translate(0,0)"/>
<path d="" fill="#131412" transform="translate(0,0)"/>
<path d="" fill="#111111" transform="translate(0,0)"/>
<path d="" fill="#111011" transform="translate(0,0)"/>
<path d="" fill="#111413" transform="translate(0,0)"/>
<path d="" fill="#131814" transform="translate(0,0)"/>
<path d="" fill="#151917" transform="translate(0,0)"/>
<path d="" fill="#161614" transform="translate(0,0)"/>
<path d="" fill="#181717" transform="translate(0,0)"/>
<path d="" fill="#121311" transform="translate(0,0)"/>
<path d="" fill="#171A16" transform="translate(0,0)"/>
<path d="" fill="#181919" transform="translate(0,0)"/>
<path d="" fill="#161314" transform="translate(0,0)"/>
<path d="" fill="#121010" transform="translate(0,0)"/>
<path d="" fill="#1A1B1A" transform="translate(0,0)"/>
<path d="" fill="#181718" transform="translate(0,0)"/>
</svg>
